<svg width="161" height="30" viewBox="0 0 161 30" fill="none" xmlns="http://www.w3.org/2000/svg">
<path d="M140.194 29.4886V0.397736H160.478V6.10796H147.225V12.0739H159.441V17.7983H147.225V23.7784H160.478V29.4886H140.194Z" fill="#6F4CF2"/>
<path d="M120.109 29.4886V0.397736H132.126C134.304 0.397736 136.184 0.790729 137.766 1.57671C139.357 2.35323 140.583 3.47065 141.445 4.92899C142.306 6.37785 142.737 8.0966 142.737 10.0852C142.737 12.1023 142.297 13.8163 141.416 15.2273C140.536 16.6288 139.286 17.6989 137.666 18.4375C136.047 19.1667 134.129 19.5313 131.913 19.5313H124.314V13.9915H130.607C131.667 13.9915 132.553 13.8542 133.263 13.5796C133.982 13.2955 134.527 12.8693 134.896 12.3011C135.266 11.7235 135.45 10.9849 135.45 10.0852C135.45 9.18561 135.266 8.44224 134.896 7.85512C134.527 7.25853 133.982 6.81346 133.263 6.5199C132.543 6.21687 131.658 6.06535 130.607 6.06535H127.141V29.4886H120.109ZM136.487 16.1932L143.732 29.4886H136.061L128.959 16.1932H136.487Z" fill="#6F4CF2"/>
<path d="M122.404 14.9432C122.404 18.1439 121.789 20.857 120.558 23.0824C119.327 25.3078 117.66 26.9981 115.558 28.1534C113.465 29.3087 111.116 29.8864 108.512 29.8864C105.899 29.8864 103.545 29.304 101.453 28.1392C99.3598 26.9744 97.6978 25.2841 96.4668 23.0682C95.2452 20.8428 94.6344 18.1345 94.6344 14.9432C94.6344 11.7424 95.2452 9.02936 96.4668 6.80399C97.6978 4.57861 99.3598 2.88827 101.453 1.73296C103.545 0.57766 105.899 7.62939e-06 108.512 7.62939e-06C111.116 7.62939e-06 113.465 0.57766 115.558 1.73296C117.66 2.88827 119.327 4.57861 120.558 6.80399C121.789 9.02936 122.404 11.7424 122.404 14.9432ZM115.217 14.9432C115.217 13.0493 114.947 11.4489 114.407 10.1421C113.877 8.83523 113.11 7.84565 112.106 7.1733C111.112 6.50096 109.914 6.16478 108.512 6.16478C107.12 6.16478 105.922 6.50096 104.918 7.1733C103.915 7.84565 103.143 8.83523 102.603 10.1421C102.073 11.4489 101.808 13.0493 101.808 14.9432C101.808 16.8371 102.073 18.4375 102.603 19.7443C103.143 21.0511 103.915 22.0407 104.918 22.7131C105.922 23.3854 107.12 23.7216 108.512 23.7216C109.914 23.7216 111.112 23.3854 112.106 22.7131C113.11 22.0407 113.877 21.0511 114.407 19.7443C114.947 18.4375 115.217 16.8371 115.217 14.9432Z" fill="#6F4CF2"/>
<path d="M64.4328 0.397736H73.1402L80.5266 18.4091H80.8675L88.2538 0.397736H96.9612V29.4886H90.1146V11.6193H89.8731L82.8845 29.304H78.5095L71.5209 11.5199H71.2794V29.4886H64.4328V0.397736Z" fill="#FF7002"/>
<path d="M48.0593 29.4886V0.397736H55.0906V23.7784H67.1928V29.4886H48.0593Z" fill="#6F4CF2"/>
<path d="M29.8926 29.4886H22.3358L32.1511 0.397736H41.5119L51.3272 29.4886H43.7704L36.938 7.72728H36.7108L29.8926 29.4886ZM28.8841 18.0398H44.6795V23.3807H28.8841V18.0398Z" fill="#6F4CF2"/>
<path d="M26.7188 10.9375H19.6165C19.5218 10.2083 19.3277 9.5502 19.0341 8.96308C18.7405 8.37596 18.3523 7.87406 17.8693 7.4574C17.3864 7.04073 16.8134 6.72349 16.1506 6.50569C15.4972 6.27842 14.7727 6.16478 13.9773 6.16478C12.5663 6.16478 11.3494 6.51043 10.3267 7.20171C9.31345 7.893 8.5322 8.89205 7.98295 10.1989C7.44318 11.5057 7.1733 13.0871 7.1733 14.9432C7.1733 16.875 7.44792 18.4943 7.99716 19.8011C8.55587 21.0985 9.33712 22.0786 10.3409 22.7415C11.3542 23.3949 12.5521 23.7216 13.9347 23.7216C14.7112 23.7216 15.4167 23.6222 16.0511 23.4233C16.6951 23.2244 17.2585 22.9356 17.7415 22.5568C18.2339 22.1686 18.6364 21.6998 18.9489 21.1506C19.2708 20.5919 19.4934 19.9621 19.6165 19.2614L26.7188 19.304C26.5956 20.5919 26.2216 21.8608 25.5966 23.1108C24.9811 24.3608 24.1335 25.5019 23.054 26.5341C21.9744 27.5568 20.6581 28.3712 19.1051 28.9773C17.5616 29.5833 15.7907 29.8864 13.7926 29.8864C11.16 29.8864 8.80208 29.3087 6.71875 28.1534C4.64489 26.9886 3.00663 25.2936 1.80398 23.0682C0.601326 20.8428 0 18.1345 0 14.9432C0 11.7424 0.610795 9.02936 1.83239 6.80399C3.05398 4.57861 4.70644 2.88827 6.78977 1.73296C8.87311 0.57766 11.2074 7.62939e-06 13.7926 7.62939e-06C15.554 7.62939e-06 17.1828 0.246221 18.679 0.738646C20.1752 1.2216 21.4915 1.93183 22.6278 2.86933C23.7642 3.79736 24.6875 4.93846 25.3977 6.29262C26.108 7.64679 26.5483 9.19508 26.7188 10.9375Z" fill="#6F4CF2"/>
</svg>
